<svg width="100" height="100" viewBox="0 0 100 100" fill="none" xmlns="http://www.w3.org/2000/svg">
<path d="M16.4606 25.8774C19.0002 25.8774 21.4358 26.9399 23.2316 28.831C25.0274 30.7222 26.0362 33.2872 26.0362 35.9617V63.6172C26.0362 64.9404 25.7884 66.2506 25.307 67.4728C24.8255 68.6949 24.1197 69.805 23.2303 70.7396C22.3408 71.6741 21.285 72.4147 20.1234 72.9189C18.9617 73.4232 17.717 73.6811 16.4606 73.678C15.2052 73.6811 13.9616 73.423 12.8012 72.9185C11.6408 72.414 10.5865 71.673 9.69879 70.7382C8.81109 69.8033 8.10747 68.693 7.6284 67.471C7.14933 66.249 6.90426 64.9393 6.90719 63.6172V35.9617C6.90427 34.6385 7.1492 33.3277 7.62799 32.1044C8.10679 30.8811 8.81003 29.7692 9.69744 28.8324C10.5848 27.8957 11.639 27.1526 12.7995 26.6455C13.96 26.1385 15.2041 25.8774 16.4606 25.8774Z" fill="#E83C77"/>
<path d="M16.4612 0.000108831C18.9893 0.0124561 21.4101 1.07713 23.1957 2.9619C24.9812 4.84666 25.9866 7.39855 25.9925 10.0609C25.9866 12.7313 24.9751 15.2903 23.18 17.1764C21.3848 19.0625 18.9526 20.1218 16.4168 20.1218C13.8831 20.1218 11.4531 19.0617 9.66151 17.175C7.8699 15.2882 6.8634 12.7292 6.8634 10.0609C6.86339 8.73575 7.1119 7.42371 7.59478 6.20001C8.07766 4.97632 8.78535 3.86511 9.67718 2.93026C10.569 1.99542 11.6274 1.25532 12.7917 0.75248C13.9559 0.249636 15.2029 -0.00605467 16.4612 0.000108831Z" fill="#E83C77"/>
<path d="M9.55347 79.8553H90.4244C92.964 79.8553 95.3996 80.9178 97.1954 82.8089C98.9912 84.7001 100 87.2651 100 89.9396C99.9941 92.61 98.9827 95.169 97.1875 97.0551C95.3924 98.9412 92.9601 100 90.4244 100H9.55347C7.02155 99.9942 4.59497 98.9322 2.80462 97.0468C1.01427 95.1614 0.00586775 92.606 0 89.9396C-6.82534e-06 87.2691 1.00584 84.7077 2.79682 82.8172C4.5878 80.9267 7.0177 79.8615 9.55347 79.8553Z" fill="#E83C77"/>
<path d="M93.0668 42.7237V63.6642C92.9484 66.2516 91.8889 68.6918 90.1082 70.4789C88.3275 72.2659 85.9621 73.2629 83.5023 73.2629C81.0425 73.2629 78.677 72.2659 76.8963 70.4789C75.1156 68.6918 74.0561 66.2516 73.9377 63.6642V38.559C73.9377 35.8907 72.9312 33.3317 71.1396 31.4449C69.348 29.5581 66.918 28.4981 64.3843 28.4981C61.8506 28.4981 59.4206 29.5581 57.629 31.4449C55.8374 33.3317 54.8309 35.8907 54.8309 38.559V63.6642C54.7124 66.2516 53.653 68.6918 51.8723 70.4789C50.0916 72.2659 47.7261 73.2629 45.2663 73.2629C42.8065 73.2629 40.4411 72.2659 38.6604 70.4789C36.8797 68.6918 35.8202 66.2516 35.7018 63.6642V42.7237V39.0503C35.6222 35.0865 36.2849 31.145 37.6522 27.4509C39.0194 23.7569 41.0644 20.3827 43.6702 17.5212C46.276 14.6596 49.3916 12.3668 52.8391 10.7736C56.2865 9.18044 59.9982 8.31818 63.7622 8.23608H64.962C68.7278 8.31214 72.4425 9.16919 75.8936 10.7582C79.3447 12.3472 82.4645 14.6369 85.0747 17.4966C87.6849 20.3562 89.7343 23.7297 91.1056 27.424C92.477 31.1183 93.1434 35.0611 93.0668 39.0269V42.7003V42.7237Z" fill="#E83C77"/>
</svg>
